<svg width="1618" height="2500" viewBox="0 0 1618 2500" fill="none" xmlns="http://www.w3.org/2000/svg">
<path fill-rule="evenodd" clip-rule="evenodd" d="M808.713 750C1168.09 750 1459.43 1048.5 1459.43 1416.71C1459.43 1784.93 1168.09 2083.43 808.713 2083.43C449.334 2083.43 158 1784.93 158 1416.71C158 1048.5 449.334 750 808.713 750Z" fill="url(#paint0_linear_136_6)"/>
<path d="M893.549 1895.25V1392.63H1035.25L1054.03 1215.73H893.549L893.788 1127.18C893.788 1081.04 898.171 1056.33 964.443 1056.33H1053.04V879.404H911.306C741.063 879.404 681.151 965.215 681.151 1109.54V1215.74H575.027V1392.66H681.151V1888.12C722.495 1896.36 765.237 1900.71 809 1900.71C837.272 1900.71 865.513 1898.89 893.549 1895.25Z" fill="white"/>
<defs>
<linearGradient id="paint0_linear_136_6" x1="808.713" y1="737.852" x2="808.713" y2="2140.28" gradientUnits="userSpaceOnUse">
<stop stop-color="#00B2FF"/>
<stop offset="1" stop-color="#006AFF"/>
</linearGradient>
</defs>
</svg>
